<svg width="96" height="96" viewBox="0 0 96 96" fill="none" xmlns="http://www.w3.org/2000/svg">
<rect x="17" y="17" width="62" height="62" rx="31" fill="white"/>
<path d="M40 47.7257C40 47.346 40.2821 47.0322 40.6482 46.9825L40.75 46.9757L53.934 46.9763L49.171 42.2327C48.8775 41.9405 48.8764 41.4656 49.1687 41.1721C49.4344 40.9052 49.851 40.8801 50.1451 41.0974L50.2294 41.1698L56.2794 47.1938C56.318 47.2323 56.3517 47.274 56.3802 47.318C56.3882 47.3313 56.3964 47.3448 56.4042 47.3587C56.4114 47.3705 56.4178 47.3828 56.4239 47.3953C56.4324 47.4134 56.4407 47.4321 56.4482 47.4512C56.4543 47.4659 56.4594 47.4802 56.464 47.4947C56.4695 47.5126 56.4749 47.5316 56.4795 47.551C56.483 47.5645 56.4857 47.5775 56.488 47.5906C56.4914 47.61 56.4942 47.6301 56.4962 47.6505C56.498 47.666 56.499 47.6814 56.4996 47.6967C56.4998 47.7061 56.5 47.7158 56.5 47.7257L56.4996 47.7547C56.499 47.7694 56.498 47.7841 56.4966 47.7988L56.5 47.7257C56.5 47.773 56.4956 47.8193 56.4872 47.8642C56.4853 47.8749 56.4829 47.8859 56.4804 47.8969C56.475 47.9195 56.4689 47.9412 56.4618 47.9625C56.4583 47.9731 56.4543 47.9844 56.4499 47.9957C56.4412 48.0182 56.4316 48.0397 56.4212 48.0607C56.4163 48.0705 56.4108 48.0809 56.4051 48.0911C56.3958 48.1077 56.3861 48.1236 56.3759 48.139C56.3687 48.1499 56.3607 48.1613 56.3524 48.1725L56.3459 48.1811C56.3257 48.2075 56.3038 48.2325 56.2803 48.256L56.2794 48.2567L50.2294 54.2817C49.9359 54.574 49.461 54.573 49.1687 54.2795C48.903 54.0127 48.8797 53.596 49.0981 53.3028L49.1709 53.2188L53.932 48.4763L40.75 48.4757C40.3358 48.4757 40 48.1399 40 47.7257Z" fill="#FE8C00"/>
<circle opacity="0.08" cx="48" cy="48" r="47" stroke="white" stroke-width="2"/>
<path d="M1 48C1 73.9574 22.0426 95 48 95C73.9574 95 95 73.9574 95 48C95 22.0426 73.9574 1 48 1" stroke="white" stroke-width="2" stroke-linecap="round"/>
</svg>
